<svg width="40" height="40" viewBox="0 0 40 40" fill="none" xmlns="http://www.w3.org/2000/svg">
<rect width="40" height="40" rx="20" fill="white" fill-opacity="0.2"/>
<path d="M18.7503 21.2493H10.417C10.0628 21.2493 9.76602 21.1295 9.52658 20.8898C9.28685 20.65 9.16699 20.3531 9.16699 19.9989C9.16699 19.6445 9.28685 19.3477 9.52658 19.1085C9.76602 18.8691 10.0628 18.7493 10.417 18.7493H18.7503V10.416C18.7503 10.0618 18.8702 9.76504 19.1099 9.5256C19.3496 9.28588 19.6466 9.16602 20.0007 9.16602C20.3552 9.16602 20.652 9.28588 20.8912 9.5256C21.1306 9.76504 21.2503 10.0618 21.2503 10.416V18.7493H29.5837C29.9378 18.7493 30.2346 18.8692 30.4741 19.1089C30.7138 19.3487 30.8337 19.6456 30.8337 19.9998C30.8337 20.3542 30.7138 20.651 30.4741 20.8902C30.2346 21.1296 29.9378 21.2493 29.5837 21.2493H21.2503V29.5827C21.2503 29.9368 21.1305 30.2337 20.8907 30.4731C20.651 30.7128 20.3541 30.8327 19.9999 30.8327C19.6455 30.8327 19.3487 30.7128 19.1095 30.4731C18.87 30.2337 18.7503 29.9368 18.7503 29.5827V21.2493Z" fill="#C7C7C7"/>
</svg>
