<svg width="32" height="32" viewBox="0 0 32 32" fill="none" xmlns="http://www.w3.org/2000/svg">
<path d="M9.83093 17.0007L16.7233 23.8931C16.9215 24.0913 17.0194 24.3233 17.0169 24.5891C17.0143 24.8548 16.9096 25.0912 16.7029 25.2981C16.496 25.4912 16.2618 25.5912 16.0003 25.5981C15.7387 25.6049 15.5045 25.5049 15.2976 25.2981L6.84393 16.8444C6.71904 16.7195 6.63104 16.5878 6.57993 16.4494C6.5286 16.3109 6.50293 16.1614 6.50293 16.0007C6.50293 15.8401 6.5286 15.6905 6.57993 15.5521C6.63104 15.4136 6.71904 15.2819 6.84393 15.1571L15.2976 6.70339C15.4823 6.51872 15.7109 6.42428 15.9836 6.42006C16.2563 6.41584 16.496 6.51028 16.7029 6.70339C16.9096 6.91028 17.0129 7.14784 17.0129 7.41606C17.0129 7.6845 16.9096 7.92217 16.7029 8.12906L9.83093 15.0007H25.0003C25.284 15.0007 25.5216 15.0965 25.7129 15.2881C25.9045 15.4794 26.0003 15.7169 26.0003 16.0007C26.0003 16.2845 25.9045 16.5221 25.7129 16.7134C25.5216 16.9049 25.284 17.0007 25.0003 17.0007H9.83093Z" fill="white"/>
</svg>
