<svg width="24" height="24" viewBox="0 0 24 24" fill="none" xmlns="http://www.w3.org/2000/svg">
<path d="M11.6645 13.2788L15.7375 9.20553C15.876 9.0672 16.0501 8.99636 16.2598 8.99303C16.4693 8.98986 16.6465 9.0607 16.7915 9.20553C16.9364 9.35053 17.0088 9.5262 17.0088 9.73253C17.0088 9.93886 16.9364 10.1145 16.7915 10.2595L12.2973 14.7538C12.2036 14.8473 12.1049 14.9133 12.001 14.9518C11.8972 14.9903 11.785 15.0095 11.6645 15.0095C11.544 15.0095 11.4319 14.9903 11.328 14.9518C11.2242 14.9133 11.1255 14.8473 11.0318 14.7538L6.53754 10.2595C6.3992 10.121 6.32837 9.94695 6.32504 9.73728C6.32187 9.52778 6.3927 9.35053 6.53754 9.20553C6.68254 9.0607 6.8582 8.98828 7.06454 8.98828C7.27087 8.98828 7.44654 9.0607 7.59154 9.20553L11.6645 13.2788Z" fill="white"/>
</svg>
