<svg width="40" height="40" viewBox="0 0 40 40" fill="none" xmlns="http://www.w3.org/2000/svg">
<path d="M20.2013 25.3198L16.4144 26.9453C15.8396 27.1911 15.2935 27.144 14.7761 26.8041C14.2587 26.4641 14 25.9859 14 25.3694V13.7247C14 13.2427 14.167 12.8348 14.5009 12.5009C14.8348 12.167 15.2427 12 15.7247 12H24.6778C25.1598 12 25.5677 12.167 25.9016 12.5009C26.2356 12.8348 26.4025 13.2427 26.4025 13.7247V25.3694C26.4025 25.9859 26.1438 26.4641 25.6264 26.8041C25.109 27.144 24.5629 27.1911 23.9881 26.9453L20.2013 25.3198ZM20.2013 23.7347L24.5586 25.6115C24.6565 25.6543 24.7498 25.6451 24.8384 25.5841C24.9271 25.5229 24.9714 25.4403 24.9714 25.3363V13.7247C24.9714 13.6512 24.9408 13.5839 24.8796 13.5229C24.8186 13.4617 24.7513 13.4311 24.6778 13.4311H15.7247C15.6512 13.4311 15.5839 13.4617 15.5229 13.5229C15.4617 13.5839 15.4311 13.6512 15.4311 13.7247V25.3363C15.4311 25.4403 15.4754 25.5229 15.5641 25.5841C15.6527 25.6451 15.746 25.6543 15.8439 25.6115L20.2013 23.7347ZM20.2013 13.4311H15.4311H24.9714H20.2013Z" fill="#C7C7C7"/>
</svg>
