<svg width="24" height="24" viewBox="0 0 24 24" fill="none" xmlns="http://www.w3.org/2000/svg">
<path d="M4.30775 21.4997C3.80258 21.4997 3.375 21.3247 3.025 20.9747C2.675 20.6247 2.5 20.1971 2.5 19.692V10.3075C2.5 9.8023 2.675 9.37472 3.025 9.02472C3.375 8.67472 3.80258 8.49972 4.30775 8.49972H19.6923C20.1974 8.49972 20.625 8.67472 20.975 9.02472C21.325 9.37472 21.5 9.8023 21.5 10.3075V19.692C21.5 20.1971 21.325 20.6247 20.975 20.9747C20.625 21.3247 20.1974 21.4997 19.6923 21.4997H4.30775ZM4.30775 19.9997H19.6923C19.7693 19.9997 19.8398 19.9676 19.9038 19.9035C19.9679 19.8395 20 19.769 20 19.692V10.3075C20 10.2305 19.9679 10.16 19.9038 10.096C19.8398 10.0318 19.7693 9.99972 19.6923 9.99972H4.30775C4.23075 9.99972 4.16025 10.0318 4.09625 10.096C4.03208 10.16 4 10.2305 4 10.3075V19.692C4 19.769 4.03208 19.8395 4.09625 19.9035C4.16025 19.9676 4.23075 19.9997 4.30775 19.9997ZM5 7.11522C4.78717 7.11522 4.609 7.04339 4.4655 6.89972C4.32183 6.75622 4.25 6.57805 4.25 6.36522C4.25 6.15239 4.32183 5.97414 4.4655 5.83047C4.609 5.68697 4.78717 5.61522 5 5.61522H19C19.2128 5.61522 19.391 5.68697 19.5345 5.83047C19.6782 5.97414 19.75 6.15239 19.75 6.36522C19.75 6.57805 19.6782 6.75622 19.5345 6.89972C19.391 7.04339 19.2128 7.11522 19 7.11522H5ZM8 4.23047C7.78717 4.23047 7.609 4.15872 7.4655 4.01522C7.32183 3.87155 7.25 3.6933 7.25 3.48047C7.25 3.26764 7.32183 3.08947 7.4655 2.94597C7.609 2.8023 7.78717 2.73047 8 2.73047H16C16.2128 2.73047 16.391 2.8023 16.5345 2.94597C16.6782 3.08947 16.75 3.26764 16.75 3.48047C16.75 3.6933 16.6782 3.87155 16.5345 4.01522C16.391 4.15872 16.2128 4.23047 16 4.23047H8Z" fill="white"/>
<path d="M10.5652 16.6429L10.1599 18.2527C10.1426 18.3294 10.1057 18.3898 10.0491 18.4338C9.99256 18.4779 9.92353 18.5 9.84205 18.5C9.73372 18.5 9.645 18.4568 9.5759 18.3705C9.50688 18.2842 9.48726 18.1893 9.51705 18.0857L9.87768 16.6429H8.55448C8.43841 16.6429 8.34512 16.5985 8.27463 16.5098C8.20406 16.4211 8.18367 16.3211 8.21346 16.2098C8.23373 16.1282 8.27525 16.064 8.338 16.017C8.40084 15.97 8.47299 15.9464 8.55448 15.9464H10.0518L10.525 14.0536H9.2018C9.08573 14.0536 8.99245 14.0092 8.92196 13.9205C8.85139 13.8319 8.831 13.7318 8.86079 13.6205C8.88098 13.539 8.9225 13.4748 8.98533 13.4277C9.04809 13.3807 9.12024 13.3571 9.2018 13.3571H10.6991L11.1046 11.7473C11.1218 11.6706 11.1587 11.6102 11.2152 11.5662C11.2717 11.5221 11.3408 11.5 11.4224 11.5C11.5307 11.5 11.6194 11.5432 11.6884 11.6295C11.7574 11.7158 11.7771 11.8107 11.7474 11.9143L11.3866 13.3571H13.3063L13.7116 11.7473C13.7289 11.6706 13.7658 11.6102 13.8224 11.5662C13.8789 11.5221 13.9479 11.5 14.0294 11.5C14.1378 11.5 14.2265 11.5432 14.2956 11.6295C14.3646 11.7158 14.3842 11.8107 14.3544 11.9143L13.9938 13.3571H15.317C15.4331 13.3571 15.5263 13.4015 15.5968 13.4902C15.6674 13.5789 15.6878 13.6789 15.658 13.7902C15.6377 13.8718 15.5962 13.936 15.5335 13.983C15.4706 14.03 15.3985 14.0536 15.317 14.0536H13.8197L13.3465 15.9464H14.6697C14.7857 15.9464 14.879 15.9908 14.9495 16.0795C15.0201 16.1681 15.0405 16.2682 15.0107 16.3795C14.9905 16.461 14.949 16.5252 14.8861 16.5723C14.8234 16.6193 14.7512 16.6429 14.6697 16.6429H13.1724L12.7669 18.2527C12.7497 18.3294 12.7128 18.3898 12.6563 18.4338C12.5997 18.4779 12.5307 18.5 12.4491 18.5C12.3408 18.5 12.2521 18.4568 12.1831 18.3705C12.1141 18.2842 12.0944 18.1893 12.1241 18.0857L12.4849 16.6429H10.5652ZM10.7393 15.9464H12.659L13.1322 14.0536H11.2125L10.7393 15.9464Z" fill="white" stroke="white" stroke-width="0.4"/>
</svg>
