<svg width="40" height="40" viewBox="0 0 40 40" fill="none" xmlns="http://www.w3.org/2000/svg">
<path d="M15.3257 26.2929C15.0806 26.2929 14.875 26.21 14.7091 26.0443C14.5433 25.8785 14.4605 25.6731 14.4605 25.4279V23.961H26.5625L26.8728 24.2713V15.4228H28.3397C28.5848 15.4228 28.7903 15.5057 28.956 15.6714C29.122 15.8374 29.2049 16.0428 29.2049 16.2878V27.617C29.2049 28.0112 29.024 28.2849 28.6622 28.4383C28.3005 28.5917 27.9805 28.5291 27.7021 28.2508L25.7445 26.2929H15.3257ZM14.4605 22.0051L12.5029 23.963C12.2245 24.2412 11.9044 24.3037 11.5428 24.1505C11.1809 23.9971 11 23.7233 11 23.329V12.8652C11 12.6201 11.083 12.4146 11.2489 12.2486C11.4146 12.0829 11.6201 12 11.8652 12H24.0519C24.297 12 24.5025 12.0829 24.6682 12.2486C24.834 12.4146 24.9169 12.6201 24.9169 12.8652V21.1401C24.9169 21.3851 24.834 21.5905 24.6682 21.7565C24.5025 21.9222 24.297 22.0051 24.0519 22.0051H14.4605ZM23.45 20.5382V13.4669H12.4669V21.2154L13.1441 20.5382H23.45Z" fill="#C7C7C7"/>
</svg>
