<svg width="24" height="24" viewBox="0 0 24 24" fill="none" xmlns="http://www.w3.org/2000/svg">
<path d="M5.30775 20.499C4.80258 20.499 4.375 20.324 4.025 19.974C3.675 19.624 3.5 19.1965 3.5 18.6913V5.3068C3.5 4.80163 3.675 4.37405 4.025 4.02405C4.375 3.67405 4.80258 3.49905 5.30775 3.49905H12.1598C12.4098 3.49905 12.5973 3.57755 12.7223 3.73455C12.8473 3.89171 12.9098 4.06321 12.9098 4.24905C12.9098 4.43488 12.8447 4.60638 12.7145 4.76355C12.5843 4.92055 12.3942 4.99905 12.1442 4.99905H5.30775C5.23075 4.99905 5.16025 5.03113 5.09625 5.0953C5.03208 5.1593 5 5.2298 5 5.3068V18.6913C5 18.7683 5.03208 18.8388 5.09625 18.9028C5.16025 18.967 5.23075 18.999 5.30775 18.999H18.6923C18.7692 18.999 18.8398 18.967 18.9038 18.9028C18.9679 18.8388 19 18.7683 19 18.6913V11.7913C19 11.5413 19.0785 11.3538 19.2355 11.2288C19.3927 11.1038 19.5642 11.0413 19.75 11.0413C19.9358 11.0413 20.1073 11.1038 20.2645 11.2288C20.4215 11.3538 20.5 11.5413 20.5 11.7913V18.6913C20.5 19.1965 20.325 19.624 19.975 19.974C19.625 20.324 19.1974 20.499 18.6923 20.499H5.30775ZM9.5 13.595V11.8145C9.5 11.5734 9.54683 11.3416 9.6405 11.1193C9.734 10.8968 9.86283 10.7035 10.027 10.5395L18.5598 2.0068C18.7148 1.85163 18.8853 1.73846 19.0712 1.6673C19.2571 1.59613 19.4462 1.56055 19.6385 1.56055C19.8347 1.56055 20.0231 1.59613 20.2038 1.6673C20.3846 1.73846 20.5493 1.84838 20.698 1.99705L21.9538 3.24905C22.0986 3.40421 22.2098 3.57538 22.2875 3.76255C22.365 3.94971 22.4038 4.13946 22.4038 4.3318C22.4038 4.52413 22.3708 4.71063 22.3048 4.8913C22.2388 5.07213 22.1282 5.24005 21.973 5.39505L13.4115 13.9568C13.2473 14.1208 13.0541 14.2522 12.8318 14.351C12.6093 14.4497 12.3775 14.499 12.1365 14.499H10.404C10.1462 14.499 9.93108 14.4128 9.75875 14.2403C9.58625 14.068 9.5 13.8529 9.5 13.595ZM11 12.999H12.2463L18.4788 6.7663L17.8558 6.1433L17.1885 5.50105L11 11.6895V12.999Z" fill="#D4D3D3"/>
</svg>
