<svg width="24" height="24" viewBox="0 0 24 24" fill="none" xmlns="http://www.w3.org/2000/svg">
<path d="M1.79883 17.0837C1.79883 16.5683 1.93183 16.1084 2.19783 15.7039C2.46383 15.2994 2.81908 14.9847 3.26358 14.7599C4.21391 14.2951 5.1695 13.9367 6.13033 13.6847C7.09133 13.4328 8.14741 13.3069 9.29858 13.3069C10.4499 13.3069 11.506 13.4328 12.4668 13.6847C13.4278 13.9367 14.3835 14.2951 15.3338 14.7599C15.7783 14.9847 16.1336 15.2994 16.3996 15.7039C16.6656 16.1084 16.7986 16.5683 16.7986 17.0837V17.7877C16.7986 18.1902 16.6508 18.544 16.3553 18.8492C16.0598 19.1543 15.7012 19.3069 15.2793 19.3069H3.31783C2.89616 19.3069 2.53758 19.1592 2.24208 18.8637C1.94658 18.568 1.79883 18.2093 1.79883 17.7877V17.0837ZM20.6833 19.3069H18.4121C18.5377 19.0774 18.6336 18.8332 18.6996 18.5742C18.7656 18.3152 18.7986 18.053 18.7986 17.7877V16.9607C18.7986 16.3043 18.6379 15.6787 18.3166 15.0839C17.9951 14.4892 17.5391 13.979 16.9486 13.5532C17.6191 13.6532 18.2557 13.8079 18.8583 14.0174C19.4608 14.2271 20.0358 14.4748 20.5833 14.7607C21.1 15.0363 21.499 15.3612 21.7803 15.7354C22.0617 16.1094 22.2023 16.5178 22.2023 16.9607V17.7877C22.2023 18.2093 22.0546 18.568 21.7591 18.8637C21.4636 19.1592 21.105 19.3069 20.6833 19.3069ZM9.29858 11.6914C8.33608 11.6914 7.51216 11.3487 6.82683 10.6634C6.1415 9.97791 5.79883 9.15391 5.79883 8.19141C5.79883 7.22891 6.1415 6.40499 6.82683 5.71966C7.51216 5.03416 8.33608 4.69141 9.29858 4.69141C10.2611 4.69141 11.0851 5.03416 11.7706 5.71966C12.4559 6.40499 12.7986 7.22891 12.7986 8.19141C12.7986 9.15391 12.4559 9.97791 11.7706 10.6634C11.0851 11.3487 10.2611 11.6914 9.29858 11.6914ZM17.9331 8.19141C17.9331 9.15391 17.5904 9.97791 16.9051 10.6634C16.2197 11.3487 15.3958 11.6914 14.4333 11.6914C14.3205 11.6914 14.1769 11.6786 14.0026 11.6529C13.8281 11.6272 13.6845 11.5991 13.5718 11.5684C13.9662 11.0942 14.2692 10.5682 14.4811 9.99041C14.6927 9.41257 14.7986 8.81257 14.7986 8.19041C14.7986 7.56807 14.6906 6.97032 14.4746 6.39716C14.2586 5.82416 13.9577 5.29666 13.5718 4.81466C13.7153 4.76332 13.8589 4.72999 14.0026 4.71466C14.1461 4.69916 14.2897 4.69141 14.4333 4.69141C15.3958 4.69141 16.2197 5.03416 16.9051 5.71966C17.5904 6.40499 17.9331 7.22891 17.9331 8.19141ZM3.29858 17.8069H15.2986V17.0837C15.2986 16.8748 15.2463 16.689 15.1418 16.5262C15.0375 16.3633 14.8718 16.221 14.6448 16.0992C13.8218 15.6748 12.9744 15.3533 12.1026 15.1347C11.2307 14.9162 10.2961 14.8069 9.29858 14.8069C8.30125 14.8069 7.36666 14.9162 6.49483 15.1347C5.623 15.3533 4.77558 15.6748 3.95258 16.0992C3.72558 16.221 3.55983 16.3633 3.45533 16.5262C3.35083 16.689 3.29858 16.8748 3.29858 17.0837V17.8069ZM9.29858 10.1914C9.84858 10.1914 10.3194 9.99557 10.7111 9.60391C11.1027 9.21224 11.2986 8.74141 11.2986 8.19141C11.2986 7.64141 11.1027 7.17057 10.7111 6.77891C10.3194 6.38724 9.84858 6.19141 9.29858 6.19141C8.74858 6.19141 8.27775 6.38724 7.88608 6.77891C7.49441 7.17057 7.29858 7.64141 7.29858 8.19141C7.29858 8.74141 7.49441 9.21224 7.88608 9.60391C8.27775 9.99557 8.74858 10.1914 9.29858 10.1914Z" fill="white"/>
</svg>
