<svg width="32" height="32" viewBox="0 0 32 32" fill="none" xmlns="http://www.w3.org/2000/svg">
<path d="M15.985 23.4877C16.3657 23.4877 16.6872 23.3563 16.9497 23.0937C17.2121 22.8308 17.3433 22.5089 17.3433 22.128C17.3433 21.7473 17.2119 21.4258 16.949 21.1633C16.6861 20.9011 16.3643 20.77 15.9837 20.77C15.603 20.77 15.2815 20.9014 15.019 21.1643C14.7566 21.4272 14.6253 21.749 14.6253 22.1297C14.6253 22.5103 14.7568 22.8319 15.0197 23.0943C15.2826 23.3565 15.6043 23.4877 15.985 23.4877ZM16.002 28.6673C14.25 28.6673 12.6032 28.3349 11.0617 27.67C9.52012 27.0051 8.17923 26.1028 7.03901 24.963C5.89879 23.8232 4.99601 22.4829 4.33067 20.942C3.66556 19.4011 3.33301 17.7548 3.33301 16.003C3.33301 14.251 3.66545 12.6042 4.33034 11.0627C4.99523 9.5211 5.89756 8.18021 7.03734 7.03998C8.17712 5.89976 9.51745 4.99698 11.0583 4.33165C12.5992 3.66654 14.2456 3.33398 15.9973 3.33398C17.7493 3.33398 19.3961 3.66643 20.9377 4.33132C22.4792 4.99621 23.8201 5.89854 24.9603 7.03832C26.1006 8.1781 27.0033 9.51843 27.6687 11.0593C28.3338 12.6002 28.6663 14.2465 28.6663 15.9983C28.6663 17.7503 28.3339 19.3971 27.669 20.9387C27.0041 22.4802 26.1018 23.8211 24.962 24.9613C23.8222 26.1015 22.4819 27.0043 20.941 27.6697C19.4001 28.3348 17.7538 28.6673 16.002 28.6673ZM15.9997 26.6673C18.9775 26.6673 21.4997 25.634 23.5663 23.5673C25.633 21.5007 26.6663 18.9784 26.6663 16.0007C26.6663 13.0229 25.633 10.5007 23.5663 8.43398C21.4997 6.36732 18.9775 5.33398 15.9997 5.33398C13.0219 5.33398 10.4997 6.36732 8.43301 8.43398C6.36634 10.5007 5.33301 13.0229 5.33301 16.0007C5.33301 18.9784 6.36634 21.5007 8.43301 23.5673C10.4997 25.634 13.0219 26.6673 15.9997 26.6673ZM16.1077 10.293C16.7228 10.293 17.2551 10.4867 17.7047 10.874C18.1545 11.2613 18.3793 11.7454 18.3793 12.3263C18.3793 12.8152 18.2357 13.2528 17.9483 13.639C17.6612 14.0254 17.333 14.3853 16.9637 14.7187C16.4797 15.148 16.0536 15.6203 15.6853 16.1357C15.3171 16.6508 15.1202 17.2245 15.0947 17.857C15.086 18.0999 15.1715 18.3033 15.351 18.4673C15.5306 18.6313 15.7399 18.7133 15.979 18.7133C16.2355 18.7133 16.4526 18.6279 16.6303 18.457C16.8081 18.2861 16.9218 18.0768 16.9713 17.829C17.0602 17.3708 17.2496 16.9627 17.5393 16.6047C17.8291 16.2464 18.143 15.9059 18.481 15.583C18.967 15.1092 19.3911 14.5928 19.7533 14.0337C20.1158 13.4743 20.297 12.8505 20.297 12.1623C20.297 11.1059 19.8808 10.2379 19.0483 9.55832C18.2159 8.87898 17.2441 8.53932 16.133 8.53932C15.3399 8.53932 14.592 8.71487 13.8893 9.06599C13.1869 9.41732 12.6399 9.92976 12.2483 10.6033C12.127 10.8102 12.0881 11.0279 12.1317 11.2563C12.175 11.485 12.2922 11.6585 12.4833 11.777C12.7267 11.9123 12.9766 11.951 13.233 11.893C13.4895 11.8348 13.7073 11.6887 13.8867 11.4547C14.1569 11.1042 14.4839 10.823 14.8677 10.611C15.2515 10.399 15.6648 10.293 16.1077 10.293Z" fill="#D4D3D3"/>
</svg>
