<svg width="40" height="40" viewBox="0 0 40 40" fill="none" xmlns="http://www.w3.org/2000/svg">
<rect width="40" height="40" rx="8" fill="white" fill-opacity="0.1"/>
<path d="M12 26.3494V17.4369C12 17.1233 12.0701 16.8262 12.2104 16.5456C12.3507 16.265 12.5447 16.034 12.7922 15.8524L18.7339 11.3961C19.0805 11.132 19.4767 11 19.9223 11C20.3679 11 20.764 11.132 21.1106 11.3961L27.0523 15.8524C27.2999 16.034 27.4938 16.265 27.6341 16.5456C27.7744 16.8262 27.8446 17.1233 27.8446 17.4369V26.3494C27.8446 26.8941 27.6506 27.3603 27.2628 27.7482C26.8749 28.1361 26.4087 28.33 25.864 28.33H22.8931C22.6126 28.33 22.3774 28.2351 22.1876 28.0453C21.9978 27.8555 21.9029 27.6203 21.9029 27.3397V22.3883C21.9029 22.1077 21.808 21.8725 21.6181 21.6827C21.4283 21.4929 21.1932 21.398 20.9126 21.398H18.932C18.6514 21.398 18.4162 21.4929 18.2264 21.6827C18.0366 21.8725 17.9417 22.1077 17.9417 22.3883V27.3397C17.9417 27.6203 17.8468 27.8555 17.657 28.0453C17.4672 28.2351 17.232 28.33 16.9514 28.33H13.9806C13.4359 28.33 12.9697 28.1361 12.5818 27.7482C12.1939 27.3603 12 26.8941 12 26.3494Z" fill="white"/>
</svg>
