<svg width="40" height="40" viewBox="0 0 40 40" fill="none" xmlns="http://www.w3.org/2000/svg">
<path d="M10.3848 22.5C9.69727 22.5 9.10879 22.2551 8.61935 21.7654C8.12963 21.276 7.88477 20.6875 7.88477 20C7.88477 19.3125 8.12963 18.724 8.61935 18.2346C9.10879 17.7449 9.69727 17.5 10.3848 17.5C11.0723 17.5 11.6609 17.7449 12.1506 18.2346C12.64 18.724 12.8848 19.3125 12.8848 20C12.8848 20.6875 12.64 21.276 12.1506 21.7654C11.6609 22.2551 11.0723 22.5 10.3848 22.5ZM20.0002 22.5C19.3127 22.5 18.7242 22.2551 18.2348 21.7654C17.745 21.276 17.5002 20.6875 17.5002 20C17.5002 19.3125 17.745 18.724 18.2348 18.2346C18.7242 17.7449 19.3127 17.5 20.0002 17.5C20.6877 17.5 21.2762 17.7449 21.7656 18.2346C22.2553 18.724 22.5002 19.3125 22.5002 20C22.5002 20.6875 22.2553 21.276 21.7656 21.7654C21.2762 22.2551 20.6877 22.5 20.0002 22.5ZM29.6156 22.5C28.9281 22.5 28.3395 22.2551 27.8498 21.7654C27.3603 21.276 27.1156 20.6875 27.1156 20C27.1156 19.3125 27.3603 18.724 27.8498 18.2346C28.3395 17.7449 28.9281 17.5 29.6156 17.5C30.3031 17.5 30.8916 17.7449 31.381 18.2346C31.8707 18.724 32.1156 19.3125 32.1156 20C32.1156 20.6875 31.8707 21.276 31.381 21.7654C30.8916 22.2551 30.3031 22.5 29.6156 22.5Z" fill="#C7C7C7"/>
</svg>
