<svg width="40" height="40" viewBox="0 0 40 40" fill="none" xmlns="http://www.w3.org/2000/svg">
<path d="M12.7655 26.7241C12.5486 26.7241 12.3669 26.6507 12.2202 26.5041C12.0734 26.3573 12 26.1753 12 25.9583C12 25.7414 12.0734 25.5596 12.2202 25.4129C12.3669 25.2665 12.5486 25.1932 12.7655 25.1932H13.8452V17.5768C13.8452 16.2041 14.2689 14.9904 15.1163 13.9357C15.9635 12.8809 17.0512 12.2063 18.3795 11.9118V11.2759C18.3795 10.9215 18.5035 10.6203 18.7513 10.3721C18.9992 10.124 19.3001 10 19.6542 10C20.0083 10 20.3097 10.124 20.5583 10.3721C20.807 10.6203 20.9313 10.9215 20.9313 11.2759V11.9118C22.2596 12.2063 23.3474 12.8809 24.1946 13.9357C25.042 14.9904 25.4657 16.2041 25.4657 17.5768V25.1932H26.5453C26.7622 25.1932 26.944 25.2666 27.0906 25.4132C27.2375 25.56 27.3109 25.742 27.3109 25.959C27.3109 26.1759 27.2375 26.3577 27.0906 26.5044C26.944 26.6508 26.7622 26.7241 26.5453 26.7241H12.7655ZM19.6536 29.59C19.1458 29.59 18.7117 29.4093 18.3512 29.048C17.9905 28.6867 17.8102 28.2523 17.8102 27.7448H21.5006C21.5006 28.254 21.3198 28.6888 20.9581 29.0493C20.5965 29.4098 20.1616 29.59 19.6536 29.59ZM15.3763 25.1932H23.9346V17.5768C23.9346 16.3952 23.5168 15.3866 22.6814 14.5512C21.8457 13.7155 20.8371 13.2977 19.6554 13.2977C18.4738 13.2977 17.4651 13.7155 16.6295 14.5512C15.794 15.3866 15.3763 16.3952 15.3763 17.5768V25.1932Z" fill="#C7C7C7"/>
</svg>
