<svg width="20" height="20" viewBox="0 0 20 20" fill="none" xmlns="http://www.w3.org/2000/svg">
<path d="M7.53977 12.9476L6.81227 15.837C6.7813 15.9748 6.71505 16.0832 6.61352 16.1622C6.51199 16.2414 6.38811 16.281 6.24186 16.281C6.04741 16.281 5.88818 16.2035 5.76415 16.0485C5.64026 15.8936 5.60505 15.7233 5.65852 15.5374L6.30581 12.9476H3.93081C3.72248 12.9476 3.55505 12.868 3.42852 12.7089C3.30186 12.5496 3.26526 12.3701 3.31873 12.1703C3.35512 12.0239 3.42963 11.9086 3.54227 11.8243C3.65505 11.7399 3.78456 11.6976 3.93081 11.6976H6.61831L7.46769 8.30013H5.09269C4.88436 8.30013 4.71693 8.22055 4.5904 8.06138C4.46373 7.90221 4.42713 7.7227 4.48061 7.52284C4.51686 7.37659 4.59137 7.26124 4.70415 7.1768C4.81679 7.09235 4.9463 7.05013 5.09269 7.05013H7.78019L8.5079 4.16076C8.53887 4.02298 8.60505 3.91457 8.70644 3.83555C8.80797 3.75638 8.93193 3.7168 9.07831 3.7168C9.27276 3.7168 9.43193 3.7943 9.55581 3.9493C9.6797 4.10416 9.71498 4.27451 9.66165 4.46034L9.01415 7.05013H12.4598L13.1873 4.16076C13.2182 4.02298 13.2845 3.91457 13.386 3.83555C13.4876 3.75638 13.6114 3.7168 13.7577 3.7168C13.9521 3.7168 14.1114 3.7943 14.2354 3.9493C14.3593 4.10416 14.3945 4.27451 14.341 4.46034L13.6937 7.05013H16.0687C16.2771 7.05013 16.4445 7.12971 16.571 7.28888C16.6977 7.44818 16.7343 7.6277 16.6808 7.82742C16.6444 7.97381 16.5699 8.08916 16.4573 8.17346C16.3445 8.25791 16.215 8.30013 16.0687 8.30013H13.3812L12.5319 11.6976H14.9069C15.1152 11.6976 15.2826 11.7772 15.4091 11.9364C15.5358 12.0955 15.5724 12.2751 15.5189 12.4749C15.4827 12.6212 15.4082 12.7365 15.2954 12.821C15.1828 12.9054 15.0532 12.9476 14.9069 12.9476H12.2194L11.4916 15.837C11.4607 15.9748 11.3945 16.0832 11.2931 16.1622C11.1916 16.2414 11.0676 16.281 10.9212 16.281C10.7268 16.281 10.5676 16.2035 10.4437 16.0485C10.3198 15.8936 10.2846 15.7233 10.3379 15.5374L10.9854 12.9476H7.53977ZM7.85227 11.6976H11.2979L12.1473 8.30013H8.70165L7.85227 11.6976Z" fill="#D4D3D3"/>
</svg>
