<svg width="32" height="32" viewBox="0 0 32 32" fill="none" xmlns="http://www.w3.org/2000/svg">
<path d="M16.9997 15.5957V10.334C16.9997 10.0507 16.9038 9.8131 16.712 9.62132C16.5202 9.42976 16.2827 9.33398 15.9993 9.33398C15.7158 9.33398 15.4783 9.42976 15.287 9.62132C15.0955 9.8131 14.9997 10.0507 14.9997 10.334V15.9033C14.9997 16.0602 15.0288 16.2122 15.087 16.3593C15.145 16.5064 15.2365 16.6424 15.3613 16.7673L19.928 21.334C20.1125 21.5187 20.3445 21.6131 20.624 21.6173C20.9036 21.6215 21.1399 21.5271 21.333 21.334C21.5261 21.1409 21.6227 20.9067 21.6227 20.6313C21.6227 20.3562 21.5261 20.1221 21.333 19.929L16.9997 15.5957ZM16.002 28.6673C14.25 28.6673 12.6032 28.3349 11.0617 27.67C9.52012 27.0051 8.17923 26.1028 7.03901 24.963C5.89879 23.8232 4.99601 22.4829 4.33067 20.942C3.66556 19.4011 3.33301 17.7548 3.33301 16.003C3.33301 14.251 3.66545 12.6042 4.33034 11.0627C4.99523 9.5211 5.89756 8.18021 7.03734 7.03998C8.17712 5.89976 9.51745 4.99698 11.0583 4.33165C12.5992 3.66654 14.2456 3.33398 15.9973 3.33398C17.7493 3.33398 19.3961 3.66643 20.9377 4.33132C22.4792 4.99621 23.8201 5.89854 24.9603 7.03832C26.1006 8.1781 27.0033 9.51843 27.6687 11.0593C28.3338 12.6002 28.6663 14.2465 28.6663 15.9983C28.6663 17.7503 28.3339 19.3971 27.669 20.9387C27.0041 22.4802 26.1018 23.8211 24.962 24.9613C23.8222 26.1015 22.4819 27.0043 20.941 27.6697C19.4001 28.3348 17.7538 28.6673 16.002 28.6673ZM15.9997 26.6673C18.9552 26.6673 21.4719 25.6284 23.5497 23.5507C25.6275 21.4729 26.6663 18.9562 26.6663 16.0007C26.6663 13.0451 25.6275 10.5284 23.5497 8.45065C21.4719 6.37287 18.9552 5.33398 15.9997 5.33398C13.0441 5.33398 10.5275 6.37287 8.44967 8.45065C6.3719 10.5284 5.33301 13.0451 5.33301 16.0007C5.33301 18.9562 6.3719 21.4729 8.44967 23.5507C10.5275 25.6284 13.0441 26.6673 15.9997 26.6673Z" fill="white"/>
</svg>
