<svg width="24" height="24" viewBox="0 0 24 24" fill="none" xmlns="http://www.w3.org/2000/svg">
<path d="M14.275 12.0004L6.925 4.65038C6.675 4.40038 6.55417 4.10871 6.5625 3.77538C6.57083 3.44204 6.7 3.15038 6.95 2.90038C7.2 2.65038 7.49167 2.52538 7.825 2.52538C8.15833 2.52538 8.45 2.65038 8.7 2.90038L16.4 10.5754C16.6 10.7754 16.75 11.0004 16.85 11.2504C16.95 11.5004 17 11.7504 17 12.0004C17 12.2504 16.95 12.5004 16.85 12.7504C16.75 13.0004 16.6 13.2254 16.4 13.4254L8.7 21.1254C8.45 21.3754 8.15417 21.4962 7.8125 21.4879C7.47083 21.4795 7.175 21.3504 6.925 21.1004C6.675 20.8504 6.55 20.5587 6.55 20.2254C6.55 19.892 6.675 19.6004 6.925 19.3504L14.275 12.0004Z" fill="#333333"/>
</svg>
