<svg width="40" height="40" viewBox="0 0 40 40" fill="none" xmlns="http://www.w3.org/2000/svg">
<rect width="40" height="40" rx="8" fill="black"/>
<g clip-path="url(#clip0_42_7151)">
<path d="M6.83167 15.8882L8.71983 14H6.83167H5.88816L4.94351 14.9435V15.8882V18.7198L4 19.6633L4.94351 20.6069V23.4385V24.3832L5.88816 25.3267H6.83167H8.71983L6.83167 23.4385V15.8882Z" fill="#FFE000"/>
<path d="M13.6274 15.8882L11.7393 14H13.6274H14.5709L15.5156 14.9435V15.8882V18.7198L16.4591 19.6633L15.5156 20.6069V23.4385V24.3832L14.5709 25.3267H13.6274H11.7393L13.6274 23.4385V15.8882Z" fill="#FFE000"/>
<path d="M20.4021 18.3228C20.5607 18.3228 20.6841 18.2798 20.7713 18.1948C20.8586 18.1087 20.9016 17.9898 20.8993 17.8358H21.9595C21.9595 18.2311 21.8168 18.5561 21.5314 18.8098C21.2459 19.0636 20.8789 19.1904 20.4293 19.1904C19.9015 19.1904 19.4846 19.0262 19.1811 18.6966C18.8764 18.367 18.7246 17.9116 18.7246 17.3294V17.283C18.7246 16.9183 18.7926 16.5966 18.9274 16.318C19.0621 16.0393 19.2581 15.8241 19.5129 15.6746C19.7678 15.5251 20.0702 15.4492 20.4191 15.4492C20.8914 15.4492 21.2663 15.5795 21.5438 15.84C21.8213 16.1005 21.9595 16.4528 21.9595 16.8968H20.8993C20.8993 16.7099 20.854 16.566 20.7623 16.4664C20.6705 16.3667 20.5471 16.3157 20.393 16.3157C20.0997 16.3157 19.9286 16.5015 19.8799 16.873C19.8641 16.9908 19.8561 17.1528 19.8561 17.36C19.8561 17.7225 19.9003 17.9739 19.9875 18.1133C20.0747 18.2537 20.2141 18.3239 20.4032 18.3239L20.4021 18.3228Z" fill="white"/>
<path d="M22.3936 17.2856C22.3936 16.9254 22.4638 16.6049 22.6054 16.3228C22.7458 16.0419 22.9486 15.8256 23.2125 15.6738C23.4764 15.5232 23.7867 15.4473 24.1424 15.4473C24.6861 15.4473 25.1142 15.6149 25.428 15.949C25.7417 16.2832 25.898 16.7385 25.898 17.315V17.3547C25.898 17.9176 25.7406 18.3639 25.4268 18.6935C25.112 19.0242 24.6872 19.1885 24.1503 19.1885C23.6134 19.1885 23.2181 19.0344 22.9055 18.7263C22.5918 18.4183 22.423 18.0014 22.3992 17.4736L22.3958 17.2833L22.3936 17.2856ZM23.5251 17.3558C23.5251 17.6888 23.5772 17.9335 23.6825 18.0898C23.7879 18.245 23.943 18.3231 24.1492 18.3231C24.5524 18.3231 24.7574 18.015 24.7665 17.3989V17.2856C24.7665 16.6388 24.5581 16.3149 24.1424 16.3149C23.7641 16.3149 23.5591 16.5935 23.5285 17.1519L23.5251 17.3558Z" fill="white"/>
<path d="M26.2646 17.2915C26.2646 16.7195 26.3892 16.2699 26.6373 15.9403C26.8853 15.6107 27.2319 15.4464 27.6782 15.4464C28.0022 15.4464 28.2751 15.5733 28.4971 15.827V14H29.6309V19.1231H28.6138L28.5572 18.7357C28.325 19.0381 28.0293 19.1888 27.6714 19.1888C27.2399 19.1888 26.8978 19.0245 26.6441 18.6949C26.3915 18.3653 26.2646 17.8975 26.2646 17.2904V17.2915ZM27.3962 17.3618C27.3962 18.0017 27.5842 18.3223 27.9603 18.3223C28.2106 18.3223 28.3895 18.2181 28.4971 18.0085V16.6346C28.3941 16.4216 28.2174 16.314 27.967 16.314C27.6182 16.314 27.429 16.5938 27.3996 17.1545L27.3962 17.3618Z" fill="white"/>
<path d="M31.9207 19.1896C31.3634 19.1896 30.9126 19.0242 30.5683 18.6946C30.2239 18.3639 30.0518 17.9346 30.0518 17.4056V17.3128C30.0518 16.9435 30.1209 16.6184 30.2579 16.3353C30.395 16.0521 30.5966 15.8346 30.8605 15.6795C31.1244 15.5243 31.4381 15.4473 31.8006 15.4473C32.3103 15.4473 32.7135 15.6047 33.0092 15.9196C33.3048 16.2345 33.452 16.6728 33.452 17.2357V17.673H31.2037C31.2445 17.8757 31.3328 18.0343 31.4687 18.1498C31.6046 18.2653 31.7825 18.3231 31.9988 18.3231C32.3567 18.3231 32.6365 18.1985 32.8381 17.9493L33.3546 18.5564C33.2142 18.7501 33.0137 18.9042 32.7554 19.0186C32.4972 19.133 32.2186 19.1907 31.9218 19.1907L31.9207 19.1896ZM31.7927 16.3149C31.4619 16.3149 31.2648 16.5324 31.2025 16.9684H32.3431V16.8812C32.3477 16.7011 32.3012 16.5618 32.2061 16.4621C32.1109 16.3625 31.9728 16.3138 31.7938 16.3138L31.7927 16.3149Z" fill="white"/>
<path d="M34.4162 18.0312C34.5838 18.0312 34.722 18.0856 34.833 18.1944C34.944 18.3031 34.9995 18.4413 34.9995 18.6112C34.9995 18.7811 34.944 18.9193 34.833 19.028C34.722 19.1367 34.5838 19.1911 34.4162 19.1911C34.2485 19.1911 34.107 19.1367 33.9982 19.0269C33.8884 18.917 33.834 18.7788 33.834 18.6123C33.834 18.4458 33.8884 18.3076 33.9982 18.1978C34.1081 18.0879 34.2474 18.0335 34.4162 18.0335V18.0312Z" fill="white"/>
<path d="M20.3988 23.1444C20.5574 23.1444 20.6798 23.1014 20.767 23.0164C20.8542 22.9315 20.8961 22.8114 20.8938 22.6585H21.9517C21.9517 23.0538 21.809 23.3778 21.5247 23.6304C21.2404 23.8829 20.8734 24.0098 20.4249 24.0098C19.8982 24.0098 19.4825 23.8456 19.179 23.5171C18.8754 23.1886 18.7236 22.7344 18.7236 22.1522V22.1058C18.7236 21.7422 18.7916 21.4205 18.9264 21.1419C19.0612 20.8632 19.256 20.6492 19.5108 20.4997C19.7657 20.3501 20.067 20.2754 20.4147 20.2754C20.8859 20.2754 21.2597 20.4056 21.536 20.665C21.8124 20.9244 21.9517 21.2767 21.9517 21.7195H20.8938C20.8938 21.5327 20.8485 21.3899 20.7568 21.2903C20.665 21.1906 20.5427 21.1407 20.3887 21.1407C20.0964 21.1407 19.9254 21.3265 19.8767 21.6969C19.8608 21.8147 19.8529 21.9767 19.8529 22.1828C19.8529 22.5441 19.8959 22.7956 19.9832 22.9349C20.0704 23.0742 20.2086 23.1444 20.3988 23.1444Z" fill="white"/>
<path d="M24.5279 23.943C24.4882 23.8693 24.452 23.7617 24.4203 23.6202C24.213 23.8795 23.9219 24.0098 23.5493 24.0098C23.2072 24.0098 22.9172 23.9067 22.6782 23.7017C22.4392 23.4967 22.3203 23.2385 22.3203 22.9281C22.3203 22.5373 22.4653 22.2428 22.7553 22.0424C23.0452 21.843 23.4677 21.7433 24.0216 21.7433H24.3693V21.553C24.3693 21.2212 24.2255 21.0547 23.9378 21.0547C23.6693 21.0547 23.5357 21.1861 23.5357 21.4488H22.4075C22.4075 21.1011 22.557 20.8179 22.8549 20.6016C23.1528 20.3841 23.5334 20.2754 23.9955 20.2754C24.4577 20.2754 24.8224 20.3875 25.0908 20.6118C25.3593 20.8361 25.4963 21.143 25.5031 21.5338V23.1274C25.5076 23.4582 25.5586 23.7108 25.6572 23.8863V23.943H24.529H24.5279ZM23.8211 23.2113C23.9615 23.2113 24.0782 23.1818 24.1711 23.1218C24.264 23.0618 24.3297 22.9938 24.3704 22.919V22.3436H24.042C23.6489 22.3436 23.453 22.5192 23.453 22.8692C23.453 22.9711 23.4881 23.0538 23.5572 23.1173C23.6263 23.1807 23.7146 23.2124 23.8222 23.2124L23.8211 23.2113Z" fill="white"/>
<path d="M27.0815 20.3403L27.1189 20.7628C27.376 20.4365 27.7203 20.2734 28.1541 20.2734C28.6117 20.2734 28.921 20.4547 29.0818 20.816C29.3276 20.4547 29.6821 20.2734 30.1465 20.2734C30.8805 20.2734 31.2588 20.7152 31.278 21.5975V23.941H30.1465V21.6678C30.1465 21.4831 30.1148 21.3495 30.0525 21.2645C29.9902 21.1796 29.8758 21.1377 29.7104 21.1377C29.4873 21.1377 29.3208 21.2362 29.2109 21.4344L29.2143 21.4809V23.9399H28.0828V21.6734C28.0828 21.4843 28.0522 21.3483 27.9922 21.2645C27.9321 21.1807 27.8166 21.1377 27.6467 21.1377C27.4304 21.1377 27.265 21.2362 27.1506 21.4344V23.941H26.0225V20.3403H27.0804H27.0815Z" fill="white"/>
<path d="M35.0005 22.1692C35.0005 22.7288 34.8736 23.175 34.6199 23.5092C34.3662 23.8433 34.0241 24.0098 33.5937 24.0098C33.2607 24.0098 32.9877 23.8886 32.7736 23.6473V25.3282H31.6455V20.3422H32.7L32.734 20.6752C32.9503 20.409 33.2346 20.2754 33.588 20.2754C34.0343 20.2754 34.382 20.4385 34.629 20.7658C34.877 21.0932 35.0005 21.5428 35.0005 22.1148V22.1681V22.1692ZM33.8723 22.099C33.8723 21.4602 33.6843 21.1407 33.3094 21.1407C33.041 21.1407 32.8631 21.2359 32.7736 21.4273V22.8454C32.8722 23.0448 33.0523 23.1444 33.3162 23.1444C33.6752 23.1444 33.861 22.8364 33.8723 22.219V22.099Z" fill="white"/>
</g>
<defs>
<clipPath id="clip0_42_7151">
<rect width="31" height="11.3267" fill="white" transform="translate(4 14)"/>
</clipPath>
</defs>
</svg>
