<svg width="20" height="20" viewBox="0 0 20 20" fill="none" xmlns="http://www.w3.org/2000/svg">
<path d="M2.30775 19.5C1.80258 19.5 1.375 19.325 1.025 18.975C0.675 18.625 0.5 18.1974 0.5 17.6923V4.30777C0.5 3.80261 0.675 3.37502 1.025 3.02502C1.375 2.67502 1.80258 2.50002 2.30775 2.50002H9.15975C9.40975 2.50002 9.59725 2.57852 9.72225 2.73552C9.84725 2.89269 9.90975 3.06419 9.90975 3.25002C9.90975 3.43586 9.84467 3.60736 9.7145 3.76452C9.58433 3.92152 9.39425 4.00002 9.14425 4.00002H2.30775C2.23075 4.00002 2.16025 4.03211 2.09625 4.09627C2.03208 4.16027 2 4.23077 2 4.30777V17.6923C2 17.7693 2.03208 17.8398 2.09625 17.9038C2.16025 17.9679 2.23075 18 2.30775 18H15.6923C15.7692 18 15.8398 17.9679 15.9038 17.9038C15.9679 17.8398 16 17.7693 16 17.6923V10.7923C16 10.5423 16.0785 10.3548 16.2355 10.2298C16.3927 10.1048 16.5642 10.0423 16.75 10.0423C16.9358 10.0423 17.1073 10.1048 17.2645 10.2298C17.4215 10.3548 17.5 10.5423 17.5 10.7923V17.6923C17.5 18.1974 17.325 18.625 16.975 18.975C16.625 19.325 16.1974 19.5 15.6923 19.5H2.30775ZM6.5 12.596V10.8155C6.5 10.5744 6.54683 10.3426 6.6405 10.1203C6.734 9.89777 6.86283 9.70452 7.027 9.54052L15.5598 1.00777C15.7148 0.852606 15.8853 0.739439 16.0712 0.668272C16.2571 0.597106 16.4462 0.561523 16.6385 0.561523C16.8347 0.561523 17.0231 0.597106 17.2038 0.668272C17.3846 0.739439 17.5493 0.849356 17.698 0.998022L18.9538 2.25002C19.0986 2.40519 19.2098 2.57636 19.2875 2.76352C19.365 2.95069 19.4038 3.14044 19.4038 3.33277C19.4038 3.52511 19.3708 3.71161 19.3048 3.89227C19.2388 4.07311 19.1282 4.24102 18.973 4.39602L10.4115 12.9578C10.2473 13.1218 10.0541 13.2532 9.83175 13.352C9.60925 13.4507 9.3775 13.5 9.1365 13.5H7.404C7.14617 13.5 6.93108 13.4138 6.75875 13.2413C6.58625 13.0689 6.5 12.8539 6.5 12.596ZM8 12H9.24625L15.4788 5.76727L14.8558 5.14427L14.1885 4.50202L8 10.6905V12Z" fill="#333333"/>
</svg>
